<?xml version="1.0" encoding="UTF-8"?>
<svg version="1.1" xmlns="http://www.w3.org/2000/svg" width="512" height="422">
<path d="M0 0 C0.97018066 0.31348389 0.97018066 0.31348389 1.95996094 0.63330078 C15.98167618 5.34841157 28.62225131 12.69146938 38.99438477 23.27783203 C41.27734156 25.44557288 42.8873404 26.89549319 46.08984375 27.19628906 C48.46715343 26.98026397 50.67950103 26.55848642 53 26 C53.74362793 25.82807129 54.48725586 25.65614258 55.25341797 25.47900391 C57.60879645 24.88266051 59.92612188 24.20907534 62.25 23.5 C63.533302 23.11013916 63.533302 23.11013916 64.8425293 22.71240234 C78.65344692 18.36454413 91.93660235 12.46832041 104.55981445 5.38720703 C108.8202395 3 108.8202395 3 111 3 C107.83203233 17.02485689 99.92815122 28.97880234 91 40 C90.19175781 41.05574219 90.19175781 41.05574219 89.3671875 42.1328125 C83.9443422 48.86368079 76.85641831 53.82678008 70 59 C89.06396417 57.141664 107.10188227 50.49792029 125 44 C123.50911526 48.50634652 121.00014434 51.90645977 118.0625 55.5625 C117.32942627 56.48276978 117.32942627 56.48276978 116.58154297 57.42163086 C111.65690724 63.53597901 106.43144677 69.33367001 101 75 C100.24614014 75.79470703 100.24614014 75.79470703 99.47705078 76.60546875 C97.89187834 78.26918354 96.29199277 79.91742385 94.6875 81.5625 C93.88868408 82.399021 93.88868408 82.399021 93.07373047 83.25244141 C90.26179649 86.1012093 87.64107024 88.32590077 84.09765625 90.2109375 C79.90500735 92.54439321 76.37339968 94.70757858 74 99 C72.25976434 106.84725776 72.77703913 115.01047664 72.95057678 123.00228882 C74.23222384 192.07015031 40.59925779 264.51307177 -5 315 C-5.556875 315.61858887 -6.11375 316.23717773 -6.6875 316.87451172 C-18.46569703 329.89165414 -30.97149049 341.44562331 -45 352 C-45.55913086 352.4213623 -46.11826172 352.84272461 -46.69433594 353.27685547 C-92.87532908 387.79802402 -151.25481105 408.94717937 -209.16796875 409.203125 C-210.20528641 409.20882507 -211.24260406 409.21452515 -212.31135559 409.22039795 C-214.49882001 409.2297852 -216.68629817 409.23635672 -218.8737793 409.24023438 C-222.13422122 409.24984299 -225.39400485 409.28088744 -228.65429688 409.3125 C-247.52588105 409.40781779 -266.06765849 407.57481051 -284.5625 403.75 C-285.58657959 403.54020508 -286.61065918 403.33041016 -287.66577148 403.11425781 C-298.66721439 400.77147532 -309.35324615 397.61035543 -320 394 C-321.44342773 393.51321777 -321.44342773 393.51321777 -322.91601562 393.01660156 C-344.10772822 385.75348308 -365.95840175 376.51479723 -384 363 C-384 362.67 -384 362.34 -384 362 C-382.84290527 362.01571045 -381.68581055 362.0314209 -380.49365234 362.04760742 C-350.07719563 362.78596771 -350.07719563 362.78596771 -320 359 C-319.05141113 358.80132324 -318.10282227 358.60264648 -317.12548828 358.39794922 C-289.07720525 352.35949448 -253.8462171 340.8462171 -233 320 C-234.26972656 319.84144531 -235.53945312 319.68289063 -236.84765625 319.51953125 C-266.94027957 315.53910323 -292.37285287 302.81024269 -311.46875 278.91015625 C-315.67946907 273.07715671 -319.2195508 267.01698638 -322.5 260.625 C-323.00805176 259.64418457 -323.00805176 259.64418457 -323.52636719 258.64355469 C-325.61585628 254.39312247 -326.56104471 250.71876934 -327 246 C-325.741875 246.165 -324.48375 246.33 -323.1875 246.5 C-310.39995386 247.75332484 -297.60795211 247.5351717 -285 245 C-286.1859375 244.59910156 -287.371875 244.19820312 -288.59375 243.78515625 C-306.16743411 237.68615082 -320.50700642 229.88889551 -334 217 C-334.81984375 216.22269531 -335.6396875 215.44539062 -336.484375 214.64453125 C-353.76307328 196.84502115 -364.19606352 171.0068437 -364.25 146.25 C-364.18841055 144.49909989 -364.11484622 142.74821474 -364 141 C-360.09362647 142.26187337 -356.26555641 143.66015591 -352.44360352 145.1574707 C-341.84960781 149.27671328 -331.36014323 152.037276 -320 153 C-320.71285156 152.43152344 -321.42570312 151.86304688 -322.16015625 151.27734375 C-342.08337746 135.21541979 -354.54748799 115.76510682 -361 91 C-361.24621094 90.06671875 -361.49242187 89.1334375 -361.74609375 88.171875 C-366.62556045 65.15425278 -363.31952572 36.60506089 -350.41015625 16.52734375 C-349.94480469 16.02332031 -349.47945313 15.51929687 -349 15 C-348.34 15 -347.68 15 -347 15 C-345.64435747 16.53441895 -344.35896977 18.13106721 -343.10546875 19.75 C-337.89814845 26.25056688 -332.21772548 32.13508204 -326.3125 38 C-325.52122208 38.78954071 -325.52122208 38.78954071 -324.71395874 39.59503174 C-316.9021863 47.37297164 -308.92236483 54.51930534 -300 61 C-299.01257813 61.7940625 -298.02515625 62.588125 -297.0078125 63.40625 C-250.89917866 100.4808767 -193.06392796 117.7629637 -135 123 C-135.23058105 121.65023071 -135.23058105 121.65023071 -135.46582031 120.27319336 C-139.95297631 93.30308893 -135.32684101 64.50047275 -119.765625 41.578125 C-117.59774142 38.63279352 -115.34620349 35.80460915 -113 33 C-112.08154297 31.83791016 -112.08154297 31.83791016 -111.14453125 30.65234375 C-85.17993382 -0.73769195 -38.23652344 -12.43115672 0 0 Z " fill="#FFFF" transform="translate(386,7)"/>
</svg>
